<?xml version="1.0" encoding="utf-8" standalone="no"?>
<!DOCTYPE svg PUBLIC "-//W3C//DTD SVG 1.1//EN"
  "http://www.w3.org/Graphics/SVG/1.1/DTD/svg11.dtd">
<!-- Created with matplotlib (https://matplotlib.org/) -->
<svg height="345.6pt" version="1.1" viewBox="0 0 460.8 345.6" width="460.8pt" xmlns="http://www.w3.org/2000/svg" xmlns:xlink="http://www.w3.org/1999/xlink">
 <metadata>
  <rdf:RDF xmlns:cc="http://creativecommons.org/ns#" xmlns:dc="http://purl.org/dc/elements/1.1/" xmlns:rdf="http://www.w3.org/1999/02/22-rdf-syntax-ns#">
   <cc:Work>
    <dc:type rdf:resource="http://purl.org/dc/dcmitype/StillImage"/>
    <dc:date>2021-10-12T09:16:57.225748</dc:date>
    <dc:format>image/svg+xml</dc:format>
    <dc:creator>
     <cc:Agent>
      <dc:title>Matplotlib v3.3.2, https://matplotlib.org/</dc:title>
     </cc:Agent>
    </dc:creator>
   </cc:Work>
  </rdf:RDF>
 </metadata>
 <defs>
  <style type="text/css">*{stroke-linecap:butt;stroke-linejoin:round;}</style>
 </defs>
 <g id="figure_1">
  <g id="patch_1">
   <path d="M 0 345.6 
L 460.8 345.6 
L 460.8 0 
L 0 0 
z
" style="fill:#ffffff;"/>
  </g>
  <g id="axes_1">
   <g id="patch_2">
    <path d="M 96.467173 307.584 
L 375.852827 307.584 
L 375.852827 41.472 
L 96.467173 41.472 
z
" style="fill:#ffffff;"/>
   </g>
   <g id="patch_3">
    <path clip-path="url(#p683efe4c35)" d="M 229.112979 54.812522 
L 232.649857 53.568 
L 232.669329 54.741661 
L 244.537503 54.544757 
L 244.537896 54.568468 
L 232.669723 54.765371 
L 232.689195 55.939031 
z
" style="fill:#1f77b4;stroke:#000000;stroke-linejoin:miter;"/>
   </g>
   <g id="patch_4">
    <path clip-path="url(#p683efe4c35)" d="M 238.305982 57.663185 
L 241.791673 56.281772 
L 241.85687 57.453782 
L 253.70525 56.79468 
L 253.706567 56.818357 
L 241.858187 57.477459 
L 241.923383 58.649469 
z
" style="fill:#1f77b4;stroke:#000000;stroke-linejoin:miter;"/>
   </g>
   <g id="patch_5">
    <path clip-path="url(#p683efe4c35)" d="M 257.816286 61.909437 
L 261.301232 60.526148 
L 261.367059 61.698123 
L 273.205558 61.033181 
L 273.206888 61.056857 
L 261.368389 61.721799 
L 261.434216 62.893774 
z
" style="fill:#1f77b4;stroke:#000000;stroke-linejoin:miter;"/>
   </g>
   <g id="patch_6">
    <path clip-path="url(#p683efe4c35)" d="M 279.491083 68.324533 
L 282.976369 66.942101 
L 283.041908 68.114092 
L 294.880481 67.452067 
L 294.881805 67.475743 
L 283.043232 68.137769 
L 283.108771 69.30976 
z
" style="fill:#1f77b4;stroke:#000000;stroke-linejoin:miter;"/>
   </g>
   <g id="patch_7">
    <path clip-path="url(#p683efe4c35)" d="M 299.835342 79.247398 
L 303.320888 77.86562 
L 303.386207 79.037623 
L 315.226258 78.377741 
L 315.227578 78.401418 
L 303.387526 79.0613 
L 303.452846 80.233303 
z
" style="fill:#1f77b4;stroke:#000000;stroke-linejoin:miter;"/>
   </g>
   <g id="patch_8">
    <path clip-path="url(#p683efe4c35)" d="M 316.896002 94.758745 
L 320.381469 93.376765 
L 320.446855 94.548764 
L 332.286041 93.888246 
L 332.287362 93.911923 
L 320.448176 94.572441 
L 320.513563 95.744441 
z
" style="fill:#1f77b4;stroke:#000000;stroke-linejoin:miter;"/>
   </g>
   <g id="patch_9">
    <path clip-path="url(#p683efe4c35)" d="M 330.664927 113.501094 
L 334.150521 112.119435 
L 334.2158 113.291441 
L 346.056516 112.631931 
L 346.057835 112.655608 
L 334.217118 113.315118 
L 334.282397 114.487123 
z
" style="fill:#1f77b4;stroke:#000000;stroke-linejoin:miter;"/>
   </g>
   <g id="patch_10">
    <path clip-path="url(#p683efe4c35)" d="M 340.474397 134.623973 
L 343.959943 133.242194 
L 344.025262 134.414198 
L 355.865163 133.754326 
L 355.866482 133.778002 
L 344.026582 134.437874 
L 344.091901 135.609878 
z
" style="fill:#1f77b4;stroke:#000000;stroke-linejoin:miter;"/>
   </g>
   <g id="patch_11">
    <path clip-path="url(#p683efe4c35)" d="M 346.32733 157.077435 
L 349.812921 155.695771 
L 349.878202 156.867776 
L 361.719097 156.208237 
L 361.720415 156.231914 
L 349.879521 156.891453 
L 349.944802 158.063458 
z
" style="fill:#1f77b4;stroke:#000000;stroke-linejoin:miter;"/>
   </g>
   <g id="patch_12">
    <path clip-path="url(#p683efe4c35)" d="M 347.712544 180.32251 
L 351.198109 178.940779 
L 351.263412 180.112783 
L 363.104681 179.452996 
L 363.106 179.476673 
L 351.264731 180.13646 
L 351.330034 181.308464 
z
" style="fill:#1f77b4;stroke:#000000;stroke-linejoin:miter;"/>
   </g>
   <g id="patch_13">
    <path clip-path="url(#p683efe4c35)" d="M 344.390018 203.315877 
L 347.875621 201.934241 
L 347.940892 203.106247 
L 359.780749 202.446866 
L 359.782068 202.470542 
L 347.942211 203.129924 
L 348.007482 204.30193 
z
" style="fill:#1f77b4;stroke:#000000;stroke-linejoin:miter;"/>
   </g>
   <g id="patch_14">
    <path clip-path="url(#p683efe4c35)" d="M 336.857115 225.283828 
L 340.342665 223.90206 
L 340.407981 225.074063 
L 352.248842 224.414174 
L 352.250162 224.437851 
L 340.4093 225.09774 
L 340.474616 226.269744 
z
" style="fill:#1f77b4;stroke:#000000;stroke-linejoin:miter;"/>
   </g>
   <g id="patch_15">
    <path clip-path="url(#p683efe4c35)" d="M 325.106305 245.132579 
L 328.591953 243.751059 
L 328.657185 244.923067 
L 340.496632 244.264098 
L 340.49795 244.287775 
L 328.658503 244.946744 
L 328.723736 246.118752 
z
" style="fill:#1f77b4;stroke:#000000;stroke-linejoin:miter;"/>
   </g>
   <g id="patch_16">
    <path clip-path="url(#p683efe4c35)" d="M 309.822737 262.615872 
L 313.308366 261.234303 
L 313.373615 262.40631 
L 325.213231 261.747169 
L 325.21455 261.770846 
L 313.374933 262.429987 
L 313.440181 263.601994 
z
" style="fill:#1f77b4;stroke:#000000;stroke-linejoin:miter;"/>
   </g>
   <g id="patch_17">
    <path clip-path="url(#p683efe4c35)" d="M 291.307436 276.770299 
L 294.793123 275.388878 
L 294.858322 276.560888 
L 306.697434 275.902277 
L 306.698751 275.925954 
L 294.859639 276.584565 
L 294.924838 277.756575 
z
" style="fill:#1f77b4;stroke:#000000;stroke-linejoin:miter;"/>
   </g>
   <g id="patch_18">
    <path clip-path="url(#p683efe4c35)" d="M 270.421094 286.990955 
L 273.906898 285.609827 
L 273.971998 286.781843 
L 285.810754 286.124252 
L 285.812069 286.147929 
L 273.973313 286.80552 
L 274.038414 287.977535 
z
" style="fill:#1f77b4;stroke:#000000;stroke-linejoin:miter;"/>
   </g>
   <g id="patch_19">
    <path clip-path="url(#p683efe4c35)" d="M 247.951803 293.112472 
L 251.437683 291.731535 
L 251.502719 292.903554 
L 263.341335 292.246623 
L 263.342649 292.2703 
L 251.504033 292.927231 
L 251.569069 294.09925 
z
" style="fill:#1f77b4;stroke:#000000;stroke-linejoin:miter;"/>
   </g>
   <g id="patch_20">
    <path clip-path="url(#p683efe4c35)" d="M 224.824711 294.501029 
L 228.310664 293.120278 
L 228.375638 294.2923 
L 240.214243 293.636001 
L 240.215556 293.659679 
L 228.37695 294.315978 
L 228.441924 295.488 
z
" style="fill:#1f77b4;stroke:#000000;stroke-linejoin:miter;"/>
   </g>
   <g id="patch_21">
    <path clip-path="url(#p683efe4c35)" d="M 201.742155 291.617465 
L 205.228257 290.237091 
L 205.293104 291.40912 
L 217.131971 290.75409 
L 217.133281 290.777768 
L 205.294414 291.432798 
L 205.359261 292.604827 
z
" style="fill:#1f77b4;stroke:#000000;stroke-linejoin:miter;"/>
   </g>
   <g id="patch_22">
    <path clip-path="url(#p683efe4c35)" d="M 179.756325 284.17643 
L 183.242488 282.796209 
L 183.307283 283.968241 
L 195.146403 283.313718 
L 195.147712 283.337396 
L 183.308592 283.991919 
L 183.373388 285.163951 
z
" style="fill:#1f77b4;stroke:#000000;stroke-linejoin:miter;"/>
   </g>
   <g id="patch_23">
    <path clip-path="url(#p683efe4c35)" d="M 159.551057 272.643644 
L 163.0373 271.263624 
L 163.102028 272.43566 
L 174.941488 271.781806 
L 174.942795 271.805484 
L 163.103335 272.459338 
L 163.168063 273.631374 
z
" style="fill:#1f77b4;stroke:#000000;stroke-linejoin:miter;"/>
   </g>
   <g id="patch_24">
    <path clip-path="url(#p683efe4c35)" d="M 141.86149 257.445513 
L 145.347853 256.065798 
L 145.412479 257.23784 
L 157.253058 256.584961 
L 157.254363 256.608638 
L 145.413784 257.261518 
L 145.47841 258.433559 
z
" style="fill:#1f77b4;stroke:#000000;stroke-linejoin:miter;"/>
   </g>
   <g id="patch_25">
    <path clip-path="url(#p683efe4c35)" d="M 127.689991 239.071964 
L 131.176268 237.692031 
L 131.240967 238.864069 
L 143.080638 238.210496 
L 143.081945 238.234173 
L 131.242274 238.887746 
L 131.306973 240.059784 
z
" style="fill:#1f77b4;stroke:#000000;stroke-linejoin:miter;"/>
   </g>
   <g id="patch_26">
    <path clip-path="url(#p683efe4c35)" d="M 117.158687 218.518233 
L 120.645079 217.13859 
L 120.70968 218.310633 
L 132.551337 217.657939 
L 132.552642 217.681617 
L 120.710985 218.334311 
L 120.775587 219.506354 
z
" style="fill:#1f77b4;stroke:#000000;stroke-linejoin:miter;"/>
   </g>
   <g id="patch_27">
    <path clip-path="url(#p683efe4c35)" d="M 110.979847 196.073286 
L 114.466196 194.693535 
L 114.530833 195.865576 
L 126.371578 195.212564 
L 126.372884 195.236242 
L 114.532139 195.889254 
L 114.596777 197.061295 
z
" style="fill:#1f77b4;stroke:#000000;stroke-linejoin:miter;"/>
   </g>
   <g id="patch_28">
    <path clip-path="url(#p683efe4c35)" d="M 109.166521 172.958915 
L 112.652897 171.579231 
L 112.717512 172.751273 
L 124.558676 172.098467 
L 124.559981 172.122145 
L 112.718817 172.774951 
L 112.783432 173.946993 
z
" style="fill:#1f77b4;stroke:#000000;stroke-linejoin:miter;"/>
   </g>
   <g id="patch_29">
    <path clip-path="url(#p683efe4c35)" d="M 111.87905 149.823486 
L 115.365405 148.443749 
L 115.430038 149.615791 
L 127.271509 148.96279 
L 127.272814 148.986468 
L 115.431344 149.639468 
L 115.495976 150.81151 
z
" style="fill:#1f77b4;stroke:#000000;stroke-linejoin:miter;"/>
   </g>
   <g id="patch_30">
    <path clip-path="url(#p683efe4c35)" d="M 119.152524 127.73186 
L 122.638962 126.352333 
L 122.703524 127.524378 
L 134.543515 126.872171 
L 134.544819 126.895849 
L 122.704828 127.548056 
L 122.76939 128.720101 
z
" style="fill:#1f77b4;stroke:#000000;stroke-linejoin:miter;"/>
   </g>
   <g id="patch_31">
    <path clip-path="url(#p683efe4c35)" d="M 130.339086 107.359421 
L 133.825473 105.979767 
L 133.890078 107.15181 
L 145.730868 106.499126 
L 145.732173 106.522804 
L 133.891383 107.175488 
L 133.955988 108.34753 
z
" style="fill:#1f77b4;stroke:#000000;stroke-linejoin:miter;"/>
   </g>
   <g id="patch_32">
    <path clip-path="url(#p683efe4c35)" d="M 145.481764 89.655024 
L 148.968281 88.275695 
L 149.032776 89.447744 
L 160.872462 88.79623 
L 160.873765 88.819907 
L 149.034079 89.471422 
L 149.098575 90.643471 
z
" style="fill:#1f77b4;stroke:#000000;stroke-linejoin:miter;"/>
   </g>
   <g id="patch_33">
    <path clip-path="url(#p683efe4c35)" d="M 163.655726 75.088957 
L 167.142278 73.709719 
L 167.206744 74.881769 
L 179.04631 74.230568 
L 179.047613 74.254246 
L 167.208046 74.905447 
L 167.272511 76.077497 
z
" style="fill:#1f77b4;stroke:#000000;stroke-linejoin:miter;"/>
   </g>
   <g id="patch_34">
    <path clip-path="url(#p683efe4c35)" d="M 184.297759 64.414568 
L 187.784394 63.035541 
L 187.848788 64.207596 
L 199.688031 63.557135 
L 199.689332 63.580813 
L 187.850089 64.231274 
L 187.914483 65.403328 
z
" style="fill:#1f77b4;stroke:#000000;stroke-linejoin:miter;"/>
   </g>
   <g id="matplotlib.axis_1">
    <g id="xtick_1">
     <g id="line2d_1">
      <defs>
       <path d="M 0 0 
L 0 3.5 
" id="m37f6ecf08a" style="stroke:#000000;stroke-width:0.8;"/>
      </defs>
      <g>
       <use style="stroke:#000000;stroke-width:0.8;" x="101.572099" xlink:href="#m37f6ecf08a" y="307.584"/>
      </g>
     </g>
     <g id="text_1">
      <!-- −6 -->
      <g transform="translate(94.201005 322.182437)scale(0.1 -0.1)">
       <defs>
        <path d="M 10.59375 35.5 
L 73.1875 35.5 
L 73.1875 27.203125 
L 10.59375 27.203125 
z
" id="DejaVuSans-8722"/>
        <path d="M 33.015625 40.375 
Q 26.375 40.375 22.484375 35.828125 
Q 18.609375 31.296875 18.609375 23.390625 
Q 18.609375 15.53125 22.484375 10.953125 
Q 26.375 6.390625 33.015625 6.390625 
Q 39.65625 6.390625 43.53125 10.953125 
Q 47.40625 15.53125 47.40625 23.390625 
Q 47.40625 31.296875 43.53125 35.828125 
Q 39.65625 40.375 33.015625 40.375 
z
M 52.59375 71.296875 
L 52.59375 62.3125 
Q 48.875 64.0625 45.09375 64.984375 
Q 41.3125 65.921875 37.59375 65.921875 
Q 27.828125 65.921875 22.671875 59.328125 
Q 17.53125 52.734375 16.796875 39.40625 
Q 19.671875 43.65625 24.015625 45.921875 
Q 28.375 48.1875 33.59375 48.1875 
Q 44.578125 48.1875 50.953125 41.515625 
Q 57.328125 34.859375 57.328125 23.390625 
Q 57.328125 12.15625 50.6875 5.359375 
Q 44.046875 -1.421875 33.015625 -1.421875 
Q 20.359375 -1.421875 13.671875 8.265625 
Q 6.984375 17.96875 6.984375 36.375 
Q 6.984375 53.65625 15.1875 63.9375 
Q 23.390625 74.21875 37.203125 74.21875 
Q 40.921875 74.21875 44.703125 73.484375 
Q 48.484375 72.75 52.59375 71.296875 
z
" id="DejaVuSans-54"/>
       </defs>
       <use xlink:href="#DejaVuSans-8722"/>
       <use x="83.789062" xlink:href="#DejaVuSans-54"/>
      </g>
     </g>
    </g>
    <g id="xtick_2">
     <g id="line2d_2">
      <g>
       <use style="stroke:#000000;stroke-width:0.8;" x="148.999252" xlink:href="#m37f6ecf08a" y="307.584"/>
      </g>
     </g>
     <g id="text_2">
      <!-- −4 -->
      <g transform="translate(141.628158 322.182437)scale(0.1 -0.1)">
       <defs>
        <path d="M 37.796875 64.3125 
L 12.890625 25.390625 
L 37.796875 25.390625 
z
M 35.203125 72.90625 
L 47.609375 72.90625 
L 47.609375 25.390625 
L 58.015625 25.390625 
L 58.015625 17.1875 
L 47.609375 17.1875 
L 47.609375 0 
L 37.796875 0 
L 37.796875 17.1875 
L 4.890625 17.1875 
L 4.890625 26.703125 
z
" id="DejaVuSans-52"/>
       </defs>
       <use xlink:href="#DejaVuSans-8722"/>
       <use x="83.789062" xlink:href="#DejaVuSans-52"/>
      </g>
     </g>
    </g>
    <g id="xtick_3">
     <g id="line2d_3">
      <g>
       <use style="stroke:#000000;stroke-width:0.8;" x="196.426405" xlink:href="#m37f6ecf08a" y="307.584"/>
      </g>
     </g>
     <g id="text_3">
      <!-- −2 -->
      <g transform="translate(189.055311 322.182437)scale(0.1 -0.1)">
       <defs>
        <path d="M 19.1875 8.296875 
L 53.609375 8.296875 
L 53.609375 0 
L 7.328125 0 
L 7.328125 8.296875 
Q 12.9375 14.109375 22.625 23.890625 
Q 32.328125 33.6875 34.8125 36.53125 
Q 39.546875 41.84375 41.421875 45.53125 
Q 43.3125 49.21875 43.3125 52.78125 
Q 43.3125 58.59375 39.234375 62.25 
Q 35.15625 65.921875 28.609375 65.921875 
Q 23.96875 65.921875 18.8125 64.3125 
Q 13.671875 62.703125 7.8125 59.421875 
L 7.8125 69.390625 
Q 13.765625 71.78125 18.9375 73 
Q 24.125 74.21875 28.421875 74.21875 
Q 39.75 74.21875 46.484375 68.546875 
Q 53.21875 62.890625 53.21875 53.421875 
Q 53.21875 48.921875 51.53125 44.890625 
Q 49.859375 40.875 45.40625 35.40625 
Q 44.1875 33.984375 37.640625 27.21875 
Q 31.109375 20.453125 19.1875 8.296875 
z
" id="DejaVuSans-50"/>
       </defs>
       <use xlink:href="#DejaVuSans-8722"/>
       <use x="83.789062" xlink:href="#DejaVuSans-50"/>
      </g>
     </g>
    </g>
    <g id="xtick_4">
     <g id="line2d_4">
      <g>
       <use style="stroke:#000000;stroke-width:0.8;" x="243.853558" xlink:href="#m37f6ecf08a" y="307.584"/>
      </g>
     </g>
     <g id="text_4">
      <!-- 0 -->
      <g transform="translate(240.672308 322.182437)scale(0.1 -0.1)">
       <defs>
        <path d="M 31.78125 66.40625 
Q 24.171875 66.40625 20.328125 58.90625 
Q 16.5 51.421875 16.5 36.375 
Q 16.5 21.390625 20.328125 13.890625 
Q 24.171875 6.390625 31.78125 6.390625 
Q 39.453125 6.390625 43.28125 13.890625 
Q 47.125 21.390625 47.125 36.375 
Q 47.125 51.421875 43.28125 58.90625 
Q 39.453125 66.40625 31.78125 66.40625 
z
M 31.78125 74.21875 
Q 44.046875 74.21875 50.515625 64.515625 
Q 56.984375 54.828125 56.984375 36.375 
Q 56.984375 17.96875 50.515625 8.265625 
Q 44.046875 -1.421875 31.78125 -1.421875 
Q 19.53125 -1.421875 13.0625 8.265625 
Q 6.59375 17.96875 6.59375 36.375 
Q 6.59375 54.828125 13.0625 64.515625 
Q 19.53125 74.21875 31.78125 74.21875 
z
" id="DejaVuSans-48"/>
       </defs>
       <use xlink:href="#DejaVuSans-48"/>
      </g>
     </g>
    </g>
    <g id="xtick_5">
     <g id="line2d_5">
      <g>
       <use style="stroke:#000000;stroke-width:0.8;" x="291.280711" xlink:href="#m37f6ecf08a" y="307.584"/>
      </g>
     </g>
     <g id="text_5">
      <!-- 2 -->
      <g transform="translate(288.099461 322.182437)scale(0.1 -0.1)">
       <use xlink:href="#DejaVuSans-50"/>
      </g>
     </g>
    </g>
    <g id="xtick_6">
     <g id="line2d_6">
      <g>
       <use style="stroke:#000000;stroke-width:0.8;" x="338.707864" xlink:href="#m37f6ecf08a" y="307.584"/>
      </g>
     </g>
     <g id="text_6">
      <!-- 4 -->
      <g transform="translate(335.526614 322.182437)scale(0.1 -0.1)">
       <use xlink:href="#DejaVuSans-52"/>
      </g>
     </g>
    </g>
   </g>
   <g id="matplotlib.axis_2">
    <g id="ytick_1">
     <g id="line2d_7">
      <defs>
       <path d="M 0 0 
L -3.5 0 
" id="me732274a68" style="stroke:#000000;stroke-width:0.8;"/>
      </defs>
      <g>
       <use style="stroke:#000000;stroke-width:0.8;" x="96.467173" xlink:href="#me732274a68" y="293.028916"/>
      </g>
     </g>
     <g id="text_7">
      <!-- −10 -->
      <g transform="translate(68.362486 296.828134)scale(0.1 -0.1)">
       <defs>
        <path d="M 12.40625 8.296875 
L 28.515625 8.296875 
L 28.515625 63.921875 
L 10.984375 60.40625 
L 10.984375 69.390625 
L 28.421875 72.90625 
L 38.28125 72.90625 
L 38.28125 8.296875 
L 54.390625 8.296875 
L 54.390625 0 
L 12.40625 0 
z
" id="DejaVuSans-49"/>
       </defs>
       <use xlink:href="#DejaVuSans-8722"/>
       <use x="83.789062" xlink:href="#DejaVuSans-49"/>
       <use x="147.412109" xlink:href="#DejaVuSans-48"/>
      </g>
     </g>
    </g>
    <g id="ytick_2">
     <g id="line2d_8">
      <g>
       <use style="stroke:#000000;stroke-width:0.8;" x="96.467173" xlink:href="#me732274a68" y="245.601762"/>
      </g>
     </g>
     <g id="text_8">
      <!-- −8 -->
      <g transform="translate(74.724986 249.400981)scale(0.1 -0.1)">
       <defs>
        <path d="M 31.78125 34.625 
Q 24.75 34.625 20.71875 30.859375 
Q 16.703125 27.09375 16.703125 20.515625 
Q 16.703125 13.921875 20.71875 10.15625 
Q 24.75 6.390625 31.78125 6.390625 
Q 38.8125 6.390625 42.859375 10.171875 
Q 46.921875 13.96875 46.921875 20.515625 
Q 46.921875 27.09375 42.890625 30.859375 
Q 38.875 34.625 31.78125 34.625 
z
M 21.921875 38.8125 
Q 15.578125 40.375 12.03125 44.71875 
Q 8.5 49.078125 8.5 55.328125 
Q 8.5 64.0625 14.71875 69.140625 
Q 20.953125 74.21875 31.78125 74.21875 
Q 42.671875 74.21875 48.875 69.140625 
Q 55.078125 64.0625 55.078125 55.328125 
Q 55.078125 49.078125 51.53125 44.71875 
Q 48 40.375 41.703125 38.8125 
Q 48.828125 37.15625 52.796875 32.3125 
Q 56.78125 27.484375 56.78125 20.515625 
Q 56.78125 9.90625 50.3125 4.234375 
Q 43.84375 -1.421875 31.78125 -1.421875 
Q 19.734375 -1.421875 13.25 4.234375 
Q 6.78125 9.90625 6.78125 20.515625 
Q 6.78125 27.484375 10.78125 32.3125 
Q 14.796875 37.15625 21.921875 38.8125 
z
M 18.3125 54.390625 
Q 18.3125 48.734375 21.84375 45.5625 
Q 25.390625 42.390625 31.78125 42.390625 
Q 38.140625 42.390625 41.71875 45.5625 
Q 45.3125 48.734375 45.3125 54.390625 
Q 45.3125 60.0625 41.71875 63.234375 
Q 38.140625 66.40625 31.78125 66.40625 
Q 25.390625 66.40625 21.84375 63.234375 
Q 18.3125 60.0625 18.3125 54.390625 
z
" id="DejaVuSans-56"/>
       </defs>
       <use xlink:href="#DejaVuSans-8722"/>
       <use x="83.789062" xlink:href="#DejaVuSans-56"/>
      </g>
     </g>
    </g>
    <g id="ytick_3">
     <g id="line2d_9">
      <g>
       <use style="stroke:#000000;stroke-width:0.8;" x="96.467173" xlink:href="#me732274a68" y="198.174609"/>
      </g>
     </g>
     <g id="text_9">
      <!-- −6 -->
      <g transform="translate(74.724986 201.973828)scale(0.1 -0.1)">
       <use xlink:href="#DejaVuSans-8722"/>
       <use x="83.789062" xlink:href="#DejaVuSans-54"/>
      </g>
     </g>
    </g>
    <g id="ytick_4">
     <g id="line2d_10">
      <g>
       <use style="stroke:#000000;stroke-width:0.8;" x="96.467173" xlink:href="#me732274a68" y="150.747456"/>
      </g>
     </g>
     <g id="text_10">
      <!-- −4 -->
      <g transform="translate(74.724986 154.546675)scale(0.1 -0.1)">
       <use xlink:href="#DejaVuSans-8722"/>
       <use x="83.789062" xlink:href="#DejaVuSans-52"/>
      </g>
     </g>
    </g>
    <g id="ytick_5">
     <g id="line2d_11">
      <g>
       <use style="stroke:#000000;stroke-width:0.8;" x="96.467173" xlink:href="#me732274a68" y="103.320303"/>
      </g>
     </g>
     <g id="text_11">
      <!-- −2 -->
      <g transform="translate(74.724986 107.119522)scale(0.1 -0.1)">
       <use xlink:href="#DejaVuSans-8722"/>
       <use x="83.789062" xlink:href="#DejaVuSans-50"/>
      </g>
     </g>
    </g>
    <g id="ytick_6">
     <g id="line2d_12">
      <g>
       <use style="stroke:#000000;stroke-width:0.8;" x="96.467173" xlink:href="#me732274a68" y="55.89315"/>
      </g>
     </g>
     <g id="text_12">
      <!-- 0 -->
      <g transform="translate(83.104673 59.692369)scale(0.1 -0.1)">
       <use xlink:href="#DejaVuSans-48"/>
      </g>
     </g>
    </g>
   </g>
   <g id="line2d_13">
    <path clip-path="url(#p683efe4c35)" d="M 244.537699 54.556612 
L 255.376032 57.197316 
L 264.889967 59.311225 
L 277.561933 62.016517 
L 281.886341 63.10101 
L 286.275012 64.370208 
L 290.634516 65.83113 
L 294.881143 67.463905 
L 299.13275 69.311003 
L 303.258439 71.300951 
L 307.375115 73.487272 
L 311.33386 75.821162 
L 315.226918 78.38958 
L 318.917462 81.120838 
L 322.506037 84.091675 
L 325.886645 87.197205 
L 329.173346 90.508332 
L 332.286702 93.900085 
L 335.338165 97.452141 
L 338.270112 101.111146 
L 341.017804 104.825167 
L 343.643608 108.708976 
L 346.057176 112.64377 
L 348.329411 116.740527 
L 350.402214 120.864793 
L 352.356687 125.127782 
L 355.015216 131.537799 
L 356.655485 135.942596 
L 358.133789 140.402646 
L 359.405311 144.84823 
L 360.492341 149.409062 
L 361.359547 153.941675 
L 362.042735 158.575071 
L 362.542143 163.163885 
L 363.021631 170.14943 
L 363.153242 174.772392 
L 363.10534 179.464835 
L 362.857059 184.076414 
L 362.389665 188.736369 
L 361.706951 193.366682 
L 360.838322 197.895026 
L 359.781408 202.458704 
L 357.951669 209.145221 
L 356.53336 213.622582 
L 354.94455 218.041132 
L 353.195199 222.318824 
L 351.256615 226.510199 
L 349.099391 230.669323 
L 346.802256 234.673361 
L 344.318022 238.651076 
L 340.497291 244.275936 
L 337.749599 248.003948 
L 334.820023 251.678841 
L 331.784448 255.169005 
L 328.548257 258.564552 
L 325.213891 261.759008 
L 321.694084 264.854578 
L 318.111674 267.772771 
L 312.507208 271.983116 
L 308.639049 274.653502 
L 304.732474 277.134417 
L 300.665596 279.476607 
L 296.499832 281.626242 
L 292.307272 283.552733 
L 287.971956 285.325323 
L 283.636165 286.910101 
L 276.96933 289.055232 
L 272.513075 290.294977 
L 267.946552 291.377265 
L 263.341992 292.258461 
L 258.776108 292.916987 
L 254.118596 293.372762 
L 249.515601 293.628869 
L 244.83317 293.711867 
L 237.905149 293.564842 
L 233.220366 293.280279 
L 228.621545 292.821185 
L 223.981628 292.154596 
L 219.449679 291.29071 
L 214.895724 290.206763 
L 210.391093 288.930024 
L 205.999576 287.506972 
L 199.424038 285.092219 
L 195.147057 283.325557 
L 190.878851 281.367053 
L 186.703364 279.226191 
L 182.69411 276.934037 
L 178.735128 274.426326 
L 174.942142 271.793645 
L 171.189942 268.977895 
L 165.802692 264.599894 
L 162.275772 261.49057 
L 158.875008 258.24679 
L 155.670355 254.911713 
L 152.578579 251.384318 
L 149.695008 247.777009 
L 146.924314 243.994693 
L 144.33242 240.167796 
L 140.627885 234.214029 
L 138.342845 230.186041 
L 136.186806 226.01174 
L 134.302763 221.943676 
L 132.551989 217.669778 
L 130.974562 213.258104 
L 129.60534 208.850699 
L 128.381483 204.324725 
L 126.831326 197.563748 
L 125.968152 192.946477 
L 125.288046 188.301462 
L 124.818992 183.705533 
L 124.557668 179.02803 
L 124.509767 174.415977 
L 124.65774 169.735628 
L 124.973842 165.12974 
L 125.722005 158.164826 
L 126.413256 153.518862 
L 127.272161 148.974629 
L 128.343541 144.407631 
L 129.602257 139.965604 
L 131.081273 135.520494 
L 132.720118 131.205098 
L 134.544167 126.88401 
L 137.517138 120.534225 
L 139.648988 116.42324 
L 141.974105 112.339525 
L 144.435811 108.424176 
L 147.111414 104.571668 
L 149.914359 100.900807 
L 152.913177 97.295632 
L 155.997128 93.851235 
L 160.873114 88.808068 
L 164.226688 85.611953 
L 167.754794 82.506423 
L 171.413087 79.563544 
L 175.142521 76.836032 
L 179.046962 74.242407 
L 182.996932 71.849755 
L 187.095112 69.566303 
L 193.346248 66.392217 
L 197.557068 64.468833 
L 201.903055 62.689508 
L 206.252599 61.129392 
L 210.731146 59.752131 
L 215.197123 58.596521 
L 219.707209 57.625925 
L 219.707209 57.625925 
" style="fill:none;stroke:#1f77b4;stroke-linecap:square;stroke-width:1.5;"/>
   </g>
   <g id="patch_35">
    <path d="M 96.467173 307.584 
L 96.467173 41.472 
" style="fill:none;stroke:#000000;stroke-linecap:square;stroke-linejoin:miter;stroke-width:0.8;"/>
   </g>
   <g id="patch_36">
    <path d="M 375.852827 307.584 
L 375.852827 41.472 
" style="fill:none;stroke:#000000;stroke-linecap:square;stroke-linejoin:miter;stroke-width:0.8;"/>
   </g>
   <g id="patch_37">
    <path d="M 96.467173 307.584 
L 375.852827 307.584 
" style="fill:none;stroke:#000000;stroke-linecap:square;stroke-linejoin:miter;stroke-width:0.8;"/>
   </g>
   <g id="patch_38">
    <path d="M 96.467173 41.472 
L 375.852827 41.472 
" style="fill:none;stroke:#000000;stroke-linecap:square;stroke-linejoin:miter;stroke-width:0.8;"/>
   </g>
  </g>
 </g>
 <defs>
  <clipPath id="p683efe4c35">
   <rect height="266.112" width="279.385653" x="96.467173" y="41.472"/>
  </clipPath>
 </defs>
</svg>
